<svg xmlns="http://www.w3.org/2000/svg"
    xmlns:xlink="http://www.w3.org/1999/xlink" version="1.1" x="0px" y="0px" viewBox="0 0 128 160" style="enable-background:new 0 0 128 128;" xml:space="preserve">
    <g>
        <path fill="#dddddd" d="M60 27l32 42.1c.6.7 1.5 1.2 2.4 1.2h15c1.7 0 3-1.3 3-3s-1.3-3-3-3h-13.5l-31.1-40.9c-4.3-5.7-11.2-9.1-18.3-9.1h-17.1c-.9 0-1.8.4-2.4 1.2s-.8 1.7-.5 2.6l16.3 59.5-22.8 9.5c-2.8 1.2-4.5 3.9-4.4 7s2.2 5.6 5.1 6.4l34.2 9.9c9.3 2.7 18.9 4 28.5 4h26c1.7 0 3-1.3 3-3s-1.3-3-3-3h-25.9c-9.1 0-18.1-1.3-26.9-3.8l-34.2-9.9c-.7-.2-.8-.7-.8-1s0-.8.7-1.1l25.2-10.5c1.4-.6 2.1-2.1 1.7-3.6l-15.9-58.2h13.1c5.4 0 10.4 2.5 13.6 6.7"/>
    </g>
</svg>
