<svg xmlns="http://www.w3.org/2000/svg"
    xmlns:xlink="http://www.w3.org/1999/xlink" version="1.1" x="0px" y="0px" viewBox="0 0 128 160" style="enable-background:new 0 0 128 128;" xml:space="preserve">
    <g>
        <path fill="#dddddd" d="M74.6,39.7l32,42.1c0.6,0.7,1.5,1.2,2.4,1.2h15c1.7,0,3-1.3,3-3s-1.3-3-3-3h-13.5L79.4,36.1C75.1,30.4,68.2,27,61.1,27H44   c-0.9,0-1.8,0.4-2.4,1.2s-0.8,1.7-0.5,2.6l16.3,59.5l-22.8,9.5c-2.8,1.2-4.5,3.9-4.4,7s2.2,5.6,5.1,6.4l34.2,9.9   c9.3,2.7,18.9,4,28.5,4H124c1.7,0,3-1.3,3-3s-1.3-3-3-3H98.1c-9.1,0-18.1-1.3-26.9-3.8l-34.2-9.9c-0.7-0.2-0.8-0.7-0.8-1   s0-0.8,0.7-1.1l25.2-10.5c1.4-0.6,2.1-2.1,1.7-3.6L47.9,33h13.1C66.4,33,71.4,35.5,74.6,39.7z"/>
        <path fill="#dddddd" d="M1.3,80.7c0.2,3.1,2.2,5.6,5.1,6.4l20.1,5.8c0.3,0.1,0.6,0.1,0.8,0.1c1.3,0,2.5-0.9,2.9-2.2c0.5-1.6-0.5-3.3-2.1-3.7   L8.1,81.4c-0.7-0.2-0.8-0.7-0.8-1s0-0.8,0.7-1.1l25.2-10.5c1.4-0.6,2.1-2.1,1.7-3.6L18.9,7h13.1c5.3,0,10.3,2.5,13.5,6.7l2.4,3.1   c1,1.3,2.9,1.6,4.2,0.6c1.3-1,1.6-2.9,0.6-4.2l-2.4-3.1C46.1,4.4,39.2,1,32.1,1H15c-0.9,0-1.8,0.4-2.4,1.2s-0.8,1.7-0.5,2.6   l16.3,59.5L5.6,73.7C2.8,74.9,1.1,77.6,1.3,80.7z"/>
    </g>
</svg>
