<svg xmlns="http://www.w3.org/2000/svg" role="img" viewBox="4.60 0.60 90.92 98.80"><style>svg {enable-background:new 0 0 100 100}</style><g><path fill="#fff" d="M93.7,63.3v-5.6c0-3.6-2.2-6.8-5.5-8.1l-10.3-4.1v-7.1c0-1-0.8-1.7-1.7-1.7h-4.7c-1,0-1.7,0.8-1.7,1.7v3.8l-12-4.8V17.3 c0-3.7-1.1-7.4-3.2-10.4L52,3.6c-1-1.4-3.1-1.4-4,0l-2.3,3.4c-2.1,3.1-3.2,6.7-3.2,10.4v20.1l-12,4.8v-3.8c0-1-0.8-1.7-1.7-1.7 h-4.7c-1,0-1.7,0.8-1.7,1.7v7.1l-10.3,4.1c-3.3,1.3-5.5,4.6-5.5,8.1v5.6l36.2-9L44.2,79l-11.6,7.6c-1.3,0.9-2.1,2.3-2.1,3.9v5.8 l16.1-5l1.6,5c0.5,1.7,2.9,1.7,3.4,0l1.6-5l16.1,5v-5.8c0-1.6-0.8-3-2.1-3.9L55.8,79l1.7-24.7L93.7,63.3z M50,52.5L50,52.5 L50,52.5L50,52.5z"/></g></svg>